ply
format ascii 1.0
comment File exported by Rhinoceros Version 8
element vertex 121
property float x
property float y
property float z
property float nx
property float ny
property float nz
element face 100
property list uchar uint vertex_indices
end_header
10 10 0 0.38864872 0.38864872 0.8354067
10 0 0 0.38864893 -0.38864845 0.8354067
9.594326972961426 8.961109161376953 0.5152910947799683 0.5072238 0.2952954 0.8096448
9.594326972961426 1.038891315460205 0.5152910947799683 0.50722384 -0.2952953 0.80964476
9.292118072509766 7.951157569885254 0.9272012710571289 0.660821 0.14763398 0.7358803
9.292118072509766 2.048842430114746 0.9272012710571289 0.660821 -0.14763401 0.7358803
9.082518577575684 6.958974838256836 1.2260748147964478 0.72487813 0.073611066 0.6849329
9.082518577575684 3.041024923324585 1.2260748147964478 0.72487813 -0.073611066 0.6849329
8.961109161376953 9.594326972961426 0.5152910947799683 0.2952954 0.5072238 0.8096448
8.961109161376953 0.40567272901535034 0.5152910947799683 0.29529548 -0.50722367 0.8096448
8.959074974060059 5.977110862731934 1.4069334268569946 0.7527428 0.03092089 0.6575881
8.959074974060059 4.022889137268066 1.4069334268569946 0.7527428 -0.030920886 0.6575881
8.918296813964844 5 1.4674453735351562 0.7607575 0 0.6490362
8.715206146240234 8.715206146240234 1.195426106452942 0.40900043 0.4090004 0.81574345
8.715206146240234 1.2847940921783447 1.195426106452942 0.40900046 -0.40900037 0.81574345
8.505208969116211 7.800178050994873 1.6854039430618286 0.56668246 0.23815927 0.78876555
8.505208969116211 2.199821710586548 1.6854039430618286 0.56668246 -0.23815928 0.78876555
8.350465774536133 6.871302127838135 2.023355484008789 0.64097303 0.13170986 0.75617856
8.350465774536133 3.1286978721618652 2.023355484008789 0.64097303 -0.13170986 0.75617856
8.256669044494629 5.936718940734863 2.2224979400634766 0.6748945 0.05891915 0.7355583
8.256669044494629 4.063281059265137 2.2224979400634766 0.6748945 -0.05891915 0.7355582
8.225314140319824 5 2.2883458137512207 0.6848076 0 0.72872394
7.951157569885254 9.292118072509766 0.9272012710571289 0.14763398 0.660821 0.7358803
7.951157569885254 0.7078822255134583 0.9272012710571289 0.14763404 -0.660821 0.7358803
7.800178050994873 8.505208969116211 1.6854039430618286 0.23815927 0.56668246 0.78876555
7.800178050994873 1.49479079246521 1.6854039430618286 0.23815931 -0.56668246 0.78876555
7.6630473136901855 7.6630473136901855 2.2206039428710938 0.37996495 0.37996495 0.84335834
7.6630473136901855 2.3369524478912354 2.2206039428710938 0.37996495 -0.37996492 0.84335834
7.55746603012085 6.789336204528809 2.582369089126587 0.46235618 0.22980112 0.8563984
7.55746603012085 3.2106640338897705 2.582369089126587 0.46235618 -0.22980107 0.8563984
7.491820335388184 5.898463726043701 2.7927746772766113 0.50377285 0.10800366 0.8570578
7.491820335388184 4.101536273956299 2.7927746772766113 0.50377285 -0.10800367 0.8570578
7.469623565673828 5 2.861912250518799 0.5163316 0 0.85638875
6.958974838256836 9.082518577575684 1.2260748147964478 0.073611066 0.72487813 0.6849329
6.958974838256836 0.9174810647964478 1.2260748147964478 0.07361104 -0.72487813 0.6849329
6.871302127838135 8.350465774536133 2.023355484008789 0.13170986 0.64097303 0.75617856
6.871302127838135 1.6495341062545776 2.023355484008789 0.13170981 -0.6409731 0.75617856
6.789336204528809 7.55746603012085 2.582369089126587 0.22980112 0.46235618 0.8563984
6.789336204528809 2.4425337314605713 2.582369089126587 0.2298011 -0.46235612 0.8563984
6.724531173706055 6.724531173706055 2.9565067291259766 0.29486537 0.29486537 0.90890527
6.724531173706055 3.2754688262939453 2.9565067291259766 0.2948654 -0.29486534 0.90890527
6.683523178100586 5.867799282073975 3.1725234985351562 0.33040196 0.1428631 0.9329655
6.683523178100586 4.132200717926025 3.1725234985351562 0.33040196 -0.14286311 0.9329655
6.669538974761963 5 3.2432448863983154 0.3415903 0 0.93984896
5.977110862731934 8.959074974060059 1.4069334268569946 0.03092089 0.7527428 0.6575881
5.977110862731934 1.0409250259399414 1.4069334268569946 0.030920872 -0.7527428 0.6575881
5.936718940734863 8.256669044494629 2.2224979400634766 0.05891915 0.6748945 0.7355583
5.936718940734863 1.7433310747146606 2.2224979400634766 0.058919147 -0.6748946 0.7355582
5.898463726043701 7.491820335388184 2.7927746772766113 0.10800365 0.50377285 0.8570578
5.898463726043701 2.5081794261932373 2.7927746772766113 0.10800367 -0.50377285 0.8570578
5.867799282073975 6.683523178100586 3.1725234985351562 0.14286311 0.33040196 0.9329655
5.867799282073975 3.316476821899414 3.1725234985351562 0.1428631 -0.33040193 0.9329655
5.848202228546143 5.848202228546143 3.390889883041382 0.16286628 0.1628663 0.9731131
5.848202228546143 4.151797771453857 3.390889883041382 0.16286628 -0.1628663 0.9731131
5.841485500335693 5 3.4622294902801514 0.16931948 0 0.9855612
5 8.918296813964844 1.4674453735351562 0 0.7607575 0.6490362
5 8.225314140319824 2.2883458137512207 0 0.6848076 0.72872394
5 7.469623565673828 2.861912250518799 0 0.5163316 0.85638875
5 6.669538974761963 3.2432448863983154 1.8752295E-09 0.3415903 0.93984896
5 5.841485500335693 3.4622294902801514 -1.8756265E-09 0.16931948 0.9855612
5 5 3.5337204933166504 0 0 1
5 4.158514499664307 3.4622294902801514 -1.8756265E-09 -0.1693195 0.9855612
5 3.330461025238037 3.2432448863983154 0 -0.3415903 0.93984896
5 2.530376434326172 2.861912250518799 0 -0.5163316 0.85638875
5 1.7746853828430176 2.2883458137512207 0 -0.68480766 0.7287239
5 1.0817033052444458 1.4674453735351562 0 -0.76075757 0.6490361
4.158514499664307 5 3.4622294902801514 -0.1693195 0 0.9855612
4.151797771453857 5.848202228546143 3.390889883041382 -0.16286626 0.16286628 0.9731131
4.151797771453857 4.151797771453857 3.390889883041382 -0.16286628 -0.16286628 0.9731131
4.132200717926025 6.683523178100586 3.1725234985351562 -0.14286311 0.33040196 0.9329655
4.132200717926025 3.316476821899414 3.1725234985351562 -0.1428631 -0.33040193 0.9329655
4.101536273956299 7.491820335388184 2.7927746772766113 -0.10800367 0.50377285 0.8570578
4.101536273956299 2.5081794261932373 2.7927746772766113 -0.10800367 -0.50377285 0.8570578
4.063281059265137 8.256669044494629 2.2224979400634766 -0.058919154 0.6748945 0.7355583
4.063281059265137 1.7433310747146606 2.2224979400634766 -0.058919147 -0.6748946 0.7355582
4.022889137268066 8.959074974060059 1.4069334268569946 -0.030920886 0.7527428 0.6575881
4.022889137268066 1.0409250259399414 1.4069334268569946 -0.03092087 -0.7527428 0.6575881
3.330461025238037 5 3.2432448863983154 -0.3415903 0 0.93984896
3.316476821899414 5.867799282073975 3.1725234985351562 -0.33040193 0.1428631 0.9329655
3.316476821899414 4.132200717926025 3.1725234985351562 -0.33040193 -0.1428631 0.9329655
3.2754688262939453 6.724531173706055 2.9565067291259766 -0.2948653 0.2948654 0.90890527
3.2754688262939453 3.2754688262939453 2.9565067291259766 -0.29486537 -0.29486537 0.90890527
3.2106640338897705 7.55746603012085 2.582369089126587 -0.22980107 0.46235618 0.8563984
3.2106640338897705 2.4425337314605713 2.582369089126587 -0.22980106 -0.46235618 0.8563984
3.1286978721618652 8.350465774536133 2.023355484008789 -0.13170984 0.6409731 0.75617856
3.1286978721618652 1.6495341062545776 2.023355484008789 -0.1317098 -0.6409731 0.75617856
3.041024923324585 9.082518577575684 1.2260748147964478 -0.073611066 0.72487813 0.6849329
3.041024923324585 0.9174810647964478 1.2260748147964478 -0.073611036 -0.72487813 0.68493295
2.530376434326172 5 2.861912250518799 -0.5163316 0 0.85638875
2.5081794261932373 5.898463726043701 2.7927746772766113 -0.50377285 0.10800366 0.8570578
2.5081794261932373 4.101536273956299 2.7927746772766113 -0.50377285 -0.10800367 0.8570578
2.4425337314605713 6.789336204528809 2.582369089126587 -0.46235618 0.2298011 0.8563984
2.4425337314605713 3.2106640338897705 2.582369089126587 -0.46235618 -0.22980106 0.8563984
2.3369524478912354 7.6630473136901855 2.2206039428710938 -0.37996495 0.37996498 0.84335834
2.3369524478912354 2.3369524478912354 2.2206039428710938 -0.37996498 -0.37996498 0.84335834
2.199821710586548 8.505208969116211 1.6854039430618286 -0.23815928 0.56668246 0.78876555
2.199821710586548 1.49479079246521 1.6854039430618286 -0.23815933 -0.5666825 0.78876555
2.048842430114746 9.292118072509766 0.9272012710571289 -0.14763401 0.660821 0.7358803
2.048842430114746 0.7078822255134583 0.9272012710571289 -0.14763407 -0.660821 0.73588026
1.7746853828430176 5 2.2883458137512207 -0.68480766 0 0.7287239
1.7433310747146606 5.936718940734863 2.2224979400634766 -0.6748946 0.058919147 0.7355582
1.7433310747146606 4.063281059265137 2.2224979400634766 -0.6748946 -0.058919147 0.7355582
1.6495341062545776 6.871302127838135 2.023355484008789 -0.6409731 0.13170981 0.75617856
1.6495341062545776 3.1286978721618652 2.023355484008789 -0.6409731 -0.1317098 0.75617856
1.49479079246521 7.800178050994873 1.6854039430618286 -0.5666825 0.23815934 0.7887655
1.49479079246521 2.199821710586548 1.6854039430618286 -0.5666825 -0.23815936 0.7887655
1.2847940921783447 8.715206146240234 1.195426106452942 -0.40900037 0.4090005 0.8157434
1.2847940921783447 1.2847940921783447 1.195426106452942 -0.40900043 -0.40900043 0.8157434
1.0817033052444458 5 1.4674453735351562 -0.76075757 0 0.6490361
1.0409250259399414 5.977110862731934 1.4069334268569946 -0.7527428 0.030920872 0.6575881
1.0409250259399414 4.022889137268066 1.4069334268569946 -0.7527428 -0.03092087 0.6575881
1.038891315460205 9.594326972961426 0.5152910947799683 -0.2952953 0.50722384 0.80964476
1.038891315460205 0.40567272901535034 0.5152910947799683 -0.29529536 -0.5072237 0.8096448
0.9174810647964478 6.958974838256836 1.2260748147964478 -0.72487813 0.07361104 0.6849329
0.9174810647964478 3.041024923324585 1.2260748147964478 -0.72487813 -0.073611036 0.68493295
0.7078822255134583 7.951157569885254 0.9272012710571289 -0.660821 0.14763404 0.7358803
0.7078822255134583 2.048842430114746 0.9272012710571289 -0.660821 -0.14763407 0.73588026
0.40567272901535034 8.961109161376953 0.5152910947799683 -0.50722367 0.29529548 0.8096448
0.40567272901535034 1.038891315460205 0.5152910947799683 -0.5072237 -0.29529536 0.8096448
0 10 0 -0.38864845 0.38864893 0.8354067
0 0 0 -0.38864866 -0.38864866 0.8354067
4 120 112 107 118
4 118 107 105 116
4 116 105 103 114
4 114 103 101 110
4 110 101 99 108
4 108 99 100 109
4 109 100 102 113
4 113 102 104 115
4 115 104 106 117
4 117 106 111 119
4 112 98 96 107
4 107 96 94 105
4 105 94 92 103
4 103 92 90 101
4 101 90 88 99
4 99 88 89 100
4 100 89 91 102
4 102 91 93 104
4 104 93 95 106
4 106 95 97 111
4 98 87 85 96
4 96 85 83 94
4 94 83 81 92
4 92 81 79 90
4 90 79 77 88
4 88 77 78 89
4 89 78 80 91
4 91 80 82 93
4 93 82 84 95
4 95 84 86 97
4 87 76 74 85
4 85 74 72 83
4 83 72 70 81
4 81 70 68 79
4 79 68 66 77
4 77 66 67 78
4 78 67 69 80
4 80 69 71 82
4 82 71 73 84
4 84 73 75 86
4 76 65 64 74
4 74 64 63 72
4 72 63 62 70
4 70 62 61 68
4 68 61 60 66
4 66 60 59 67
4 67 59 58 69
4 69 58 57 71
4 71 57 56 73
4 73 56 55 75
4 65 45 47 64
4 64 47 49 63
4 63 49 51 62
4 62 51 53 61
4 61 53 54 60
4 60 54 52 59
4 59 52 50 58
4 58 50 48 57
4 57 48 46 56
4 56 46 44 55
4 45 34 36 47
4 47 36 38 49
4 49 38 40 51
4 51 40 42 53
4 53 42 43 54
4 54 43 41 52
4 52 41 39 50
4 50 39 37 48
4 48 37 35 46
4 46 35 33 44
4 34 23 25 36
4 36 25 27 38
4 38 27 29 40
4 40 29 31 42
4 42 31 32 43
4 43 32 30 41
4 41 30 28 39
4 39 28 26 37
4 37 26 24 35
4 35 24 22 33
4 23 9 14 25
4 25 14 16 27
4 27 16 18 29
4 29 18 20 31
4 31 20 21 32
4 32 21 19 30
4 30 19 17 28
4 28 17 15 26
4 26 15 13 24
4 24 13 8 22
4 9 1 3 14
4 14 3 5 16
4 16 5 7 18
4 18 7 11 20
4 20 11 12 21
4 21 12 10 19
4 19 10 6 17
4 17 6 4 15
4 15 4 2 13
4 13 2 0 8