# Rhino

mtllib rhinovault_mesh_1.mtl
usemtl Default
v 11.11578535064865 10.771548753309141 0.28384710665345825
v 11.11578535064865 -0.77154875330914141 0.28384710665345825
v 10.61958351946549 9.5723469284133138 0.79913820143342651
v 10.61958351946549 0.42765362200446666 0.79913820143342651
v 10.24993456622191 8.4065499586580152 1.2110483777105872
v 10.24993456622191 1.5934500413419856 1.2110483777105872
v 9.9935614620976665 7.2612637571010437 1.509921921449906
v 9.9935614620976665 2.7387359676900656 1.509921921449906
v 9.845058676293867 10.303276422618016 0.79913820143342651
v 9.845058676293867 -0.30327676662912895 0.79913820143342651
v 9.8425705456952386 6.1278885963290621 1.6907805335104529
v 9.8425705456952386 3.8721114036709379 1.6907805335104529
v 9.7926924508678947 5 1.7512924801886145
v 9.5442806647631713 9.2884986803238583 1.4792732131064001
v 9.5442806647631713 0.71150159488503362 1.4792732131064001
v 9.2874211328566361 8.2322728278526149 1.9692510497152869
v 9.2874211328566361 1.7677268969384934 1.9692510497152869
v 9.0981459003515521 7.1600622925977859 2.3072025906622473
v 9.0981459003515521 2.8399377074022141 2.3072025906622473
v 8.9834177668462374 6.0812638069198721 2.5063450467169348
v 8.9834177668462374 3.9187361930801279 2.5063450467169348
v 8.9450657941215859 5 2.572192920404679
v 8.6097292466720212 9.9544337420898756 1.2110483777105872
v 8.6097292466720212 0.045566601921238736 1.2110483777105872
v 8.4250575806964676 9.0460968911581361 1.9692510497152869
v 8.4250575806964676 0.95390283363297179 1.9692510497152869
v 8.2573251498301357 8.0739814806663688 2.504451049524552
v 8.2573251498301357 1.9260182441247395 2.504451049524552
v 8.1281826563589306 7.0654482280998314 2.8662161957800452
v 8.1281826563589306 2.9345520471090594 2.8662161957800452
v 8.0478876607230916 6.0371054395882018 3.0766217839300696
v 8.0478876607230916 3.9628945604117982 3.0766217839300696
v 8.0207375249129367 5 3.1457593571722571
v 7.3961339236200931 9.7124910013536692 1.509921921449906
v 7.3961339236200931 0.28750858583299488 1.509921921449906
v 7.2888964280140218 8.8674753128057944 2.3072025906622473
v 7.2888964280140218 1.1325245495897618 2.3072025906622473
v 7.1886392294085084 7.9521079755548945 2.8662161957800452
v 7.1886392294085084 2.0478917492362156 2.8662161957800452
v 7.1093724977776827 6.9906431491291858 3.2403538357794348
v 7.1093724977776827 3.0093568508708137 3.2403538357794348
v 7.0592132780210051 6.0017091729153229 3.4563706051886145
v 7.0592132780210051 3.9982908270846771 3.4563706051886145
v 7.0421084008372361 5 3.5270919930517737
v 6.1951600600511245 9.5699988461587502 1.6907805335104529
v 6.1951600600511245 0.43000115384124959 1.6907805335104529
v 6.1457543950842792 8.7592048327386891 2.5063450467169348
v 6.1457543950842792 1.2407953048657556 2.5063450467169348
v 6.0989622587654537 7.8763325100360069 3.0766217839300696
v 6.0989622587654537 2.1236672147551019 3.0766217839300696
v 6.0614548273222857 6.9433072199466963 3.4563706051886145
v 6.0614548273222857 3.0566927800533041 3.4563706051886145
v 6.0374845527460073 5.9790881029439049 3.6747369896948401
v 6.0374845527460073 4.0209118970560951 3.6747369896948401
v 6.0292689391472569 5 3.7460765969336096
v 5 9.5229282183467951 1.7512924801886145
v 5 8.7230115611186463 2.572192920404679
v 5 7.8507105623215319 3.1457593571722571
v 5 6.9271651176776858 3.5270919930517737
v 5 5.9713349180780382 3.7460765969336096
v 5 5 3.8175675999701086
v 5 4.0286650819219618 3.7460765969336096
v 5 3.0728348823223142 3.5270919930517737
v 5 2.1492894376784681 3.1457593571722571
v 5 1.2769878884635735 2.572192920404679
v 5 0.47707191925765025 1.7512924801886145
v 3.9707310608527431 5 3.7460765969336096
v 3.9625154472539927 5.9790881029439049 3.6747369896948401
v 3.9625154472539927 4.0209118970560951 3.6747369896948401
v 3.9385451726777143 6.9433072199466963 3.4563706051886145
v 3.9385451726777143 3.0566927800533041 3.4563706051886145
v 3.9010377412345463 7.8763325100360069 3.0766217839300696
v 3.9010377412345463 2.1236672147551019 3.0766217839300696
v 3.8542456049157208 8.7592048327386891 2.5063450467169348
v 3.8542456049157208 1.2407953048657556 2.5063450467169348
v 3.8048399399488755 9.5699988461587502 1.6907805335104529
v 3.8048399399488755 0.43000115384124959 1.6907805335104529
v 2.9578915991627639 5 3.5270919930517737
v 2.9407867219789958 6.0017091729153229 3.4563706051886145
v 2.9407867219789958 3.9982908270846771 3.4563706051886145
v 2.8906275022223173 6.9906431491291858 3.2403538357794348
v 2.8906275022223173 3.0093568508708137 3.2403538357794348
v 2.8113610622148619 7.9521079755548945 2.8662161957800452
v 2.8113610622148619 2.0478917492362156 2.8662161957800452
v 2.7111035719859773 8.8674753128057944 2.3072025906622473
v 2.7111035719859773 1.1325245495897618 2.3072025906622473
v 2.6038657847565361 9.7124910013536692 1.509921921449906
v 2.6038657847565361 0.28750858583299488 1.509921921449906
v 1.9792624750870633 5 3.1457593571722571
v 1.9521120476535372 6.0371054395882018 3.0766217839300696
v 1.9521120476535372 3.9628945604117982 3.0766217839300696
v 1.8718170520176991 7.0654482280998314 2.8662161957800452
v 1.8718170520176991 2.9345520471090594 2.8662161957800452
v 1.7426745585464936 8.0739814806663688 2.504451049524552
v 1.7426745585464936 1.9260182441247395 2.504451049524552
v 1.5749421276801625 9.0460968911581361 1.9692510497152869
v 1.5749421276801625 0.95390283363297179 1.9692510497152869
v 1.3902707533279788 9.9544337420898756 1.2110483777105872
v 1.3902707533279788 0.045566601921238736 1.2110483777105872
v 1.0549336226316735 5 2.572192920404679
v 1.0165823789654476 6.0812638069198721 2.5063450467169348
v 1.0165823789654476 3.9187361930801279 2.5063450467169348
v 0.90185395383676159 7.1600622925977859 2.3072025906622473
v 0.90185395383676159 2.8399377074022141 2.3072025906622473
v 0.71257857551999315 8.2322728278526149 1.9692510497152869
v 0.71257857551999315 1.7677268969384934 1.9692510497152869
v 0.45571962686020018 9.2884986803238583 1.4792732131064001
v 0.45571962686020018 0.71150159488503362 1.4792732131064001
v 0.20730769494379109 5 1.7512924801886145
v 0.15742945430476163 6.1278885963290621 1.6907805335104529
v 0.15742945430476163 3.8721114036709379 1.6907805335104529
v 0.15494190695287524 10.303276422618016 0.79913820143342651
v 0.15494190695287524 -0.30327676662912895 0.79913820143342651
v 0.0064381004672777742 7.2612637571010437 1.509921921449906
v 0.0064381004672777742 2.7387359676900656 1.509921921449906
v -0.24993420169269587 8.4065499586580152 1.2110483777105872
v -0.24993420169269587 1.5934500413419856 1.2110483777105872
v -0.61958388399470254 9.5723469284133138 0.79913820143342651
v -0.61958388399470254 0.42765362200446666 0.79913820143342651
v -1.1157853506486504 10.771548753309141 0.28384710665345825
v -1.1157853506486504 -0.77154875330914141 0.28384710665345825
vn 0.33267757296562195 0.352519690990448 0.87467449903488159
vn 0.33267778158187866 -0.3525194525718689 0.87467449903488159
vn 0.43884214758872986 0.27072307467460632 0.85681188106536865
vn 0.43884220719337463 -0.27072295546531677 0.85681188106536865
vn 0.58607637882232666 0.1387447714805603 0.79828840494155884
vn 0.58607637882232666 -0.1387447863817215 0.79828840494155884
vn 0.65269678831100464 0.070234335958957672 0.75435668230056763
vn 0.65269678831100464 -0.070234335958957672 0.75435668230056763
vn 0.25351029634475708 0.4614221453666687 0.8501894474029541
vn 0.25351038575172424 -0.46142202615737915 0.85018950700759888
vn 0.68300116062164307 0.029729435220360756 0.72981202602386475
vn 0.68300116062164307 -0.029729431495070457 0.72981202602386475
vn 0.6918874979019165 0 0.72200530767440796
vn 0.3519226610660553 0.37291261553764343 0.85853749513626099
vn 0.35192269086837769 -0.37291258573532104 0.85853749513626099
vn 0.4940531849861145 0.22001954913139343 0.84113186597824097
vn 0.4940531849861145 -0.22001954913139343 0.84113186597824097
vn 0.56526374816894531 0.12308057397603989 0.81567645072937012
vn 0.56526374816894531 -0.12308057397603989 0.81567645072937012
vn 0.59914416074752808 0.055425781756639481 0.79872035980224609
vn 0.59914422035217285 -0.055425778031349182 0.79872035980224609
vn 0.60924029350280762 0 0.79298567771911621
vn 0.12838710844516754 0.60894596576690674 0.78275257349014282
vn 0.12838715314865112 -0.60894602537155151 0.78275251388549805
vn 0.20511877536773682 0.51717507839202881 0.8309369683265686
vn 0.2051188051700592 -0.51717507839202881 0.8309369683265686
vn 0.3245551586151123 0.34391283988952637 0.88112878799438477
vn 0.32455518841743469 -0.34391281008720398 0.88112878799438477
vn 0.3949677050113678 0.20801608264446259 0.89483505487442017
vn 0.39496773481369019 -0.2080160528421402 0.89483505487442017
vn 0.43105524778366089 0.097925662994384766 0.89699608087539673
vn 0.43105524778366089 -0.097925670444965363 0.89699608087539673
vn 0.44212529063224792 0 0.896953284740448
vn 0.064628534018993378 0.67438209056854248 0.73554873466491699
vn 0.064628511667251587 -0.67438209056854248 0.73554873466491699
vn 0.11402913182973862 0.58802688121795654 0.80076324939727783
vn 0.11402909457683563 -0.58802688121795654 0.80076324939727783
vn 0.19490638375282288 0.41553774476051331 0.88844799995422363
vn 0.19490638375282288 -0.41553768515586853 0.88844805955886841
vn 0.24739986658096313 0.26215571165084839 0.93277418613433838
vn 0.24739989638328552 -0.262155681848526 0.93277418613433838
vn 0.27587801218032837 0.12640213966369629 0.95284509658813477
vn 0.27587801218032837 -0.12640213966369629 0.95284509658813477
vn 0.28483420610427856 0 0.95857679843902588
vn 0.027286406606435776 0.7038835883140564 0.70979106426239014
vn 0.027286389842629433 -0.7038835883140564 0.70979106426239014
vn 0.051197785884141922 0.62142753601074219 0.78179705142974854
vn 0.051197785884141922 -0.62142759561538696 0.78179699182510376
vn 0.091423675417900085 0.45187139511108398 0.8873860239982605
vn 0.091423690319061279 -0.45187139511108398 0.8873860239982605
vn 0.11883659660816193 0.29122763872146606 0.94924408197402954
vn 0.11883657425642014 -0.29122757911682129 0.94924408197402954
vn 0.13419058918952942 0.1421942263841629 0.98070061206817627
vn 0.13419058918952942 -0.1421942263841629 0.98070061206817627
vn 0.13909097015857697 0 0.99027961492538452
vn 0 0.71250349283218384 0.70166856050491333
vn 0 0.63134443759918213 0.77550250291824341
vn 0 0.46296960115432739 0.88637417554855347
vn 1.5559211696825059E-09 0.30032986402511597 0.95383542776107788
vn -1.5389443053237528E-09 0.14721204340457916 0.98910492658615112
vn 0 0 1
vn -1.5389443053237528E-09 -0.14721205830574036 0.98910492658615112
vn 0 -0.30032986402511597 0.95383542776107788
vn 0 -0.46296960115432739 0.88637417554855347
vn 0 -0.63134455680847168 0.77550244331359863
vn 0 -0.71250355243682861 0.70166850090026855
vn -0.13909098505973816 0 0.99027961492538452
vn -0.13419057428836823 0.14219421148300171 0.98070061206817627
vn -0.13419058918952942 -0.14219421148300171 0.98070061206817627
vn -0.11883659660816193 0.29122763872146606 0.94924408197402954
vn -0.11883657425642014 -0.29122757911682129 0.94924408197402954
vn -0.091423690319061279 0.45187139511108398 0.8873860239982605
vn -0.091423690319061279 -0.45187139511108398 0.8873860239982605
vn -0.05119778960943222 0.62142753601074219 0.78179705142974854
vn -0.051197785884141922 -0.62142759561538696 0.78179699182510376
vn -0.027286402881145477 0.7038835883140564 0.70979106426239014
vn -0.027286389842629433 -0.7038835883140564 0.70979106426239014
vn -0.28483420610427856 0 0.95857679843902588
vn -0.27587798237800598 0.12640213966369629 0.95284509658813477
vn -0.27587798237800598 -0.12640213966369629 0.95284509658813477
vn -0.24739982187747955 0.26215571165084839 0.93277418613433838
vn -0.24739986658096313 -0.26215571165084839 0.93277418613433838
vn -0.19490635395050049 0.41553777456283569 0.88844799995422363
vn -0.19490633904933929 -0.41553777456283569 0.88844799995422363
vn -0.11402911692857742 0.58802688121795654 0.80076324939727783
vn -0.11402907967567444 -0.58802688121795654 0.80076324939727783
vn -0.064628534018993378 0.67438209056854248 0.73554873466491699
vn -0.06462850421667099 -0.67438209056854248 0.73554873466491699
vn -0.44212529063224792 0 0.896953284740448
vn -0.43105524778366089 0.097925662994384766 0.89699608087539673
vn -0.43105524778366089 -0.097925670444965363 0.89699608087539673
vn -0.3949677050113678 0.20801608264446259 0.89483505487442017
vn -0.3949677050113678 -0.208016037940979 0.89483511447906494
vn -0.3245551586151123 0.34391286969184875 0.88112872838973999
vn -0.32455521821975708 -0.34391289949417114 0.88112872838973999
vn -0.20511879026889801 0.51717507839202881 0.8309369683265686
vn -0.2051188051700592 -0.51717507839202881 0.8309369683265686
vn -0.12838713824748993 0.60894602537155151 0.78275251388549805
vn -0.1283871978521347 -0.60894596576690674 0.78275251388549805
vn -0.60924035310745239 0 0.79298561811447144
vn -0.59914427995681763 0.055425770580768585 0.79872030019760132
vn -0.59914427995681763 -0.055425770580768585 0.79872030019760132
vn -0.56526374816894531 0.1230805292725563 0.81567645072937012
vn -0.56526374816894531 -0.12308051437139511 0.81567645072937012
vn -0.49405324459075928 0.2200196385383606 0.84113180637359619
vn -0.49405324459075928 -0.2200196385383606 0.84113180637359619
vn -0.35192260146141052 0.37291267514228821 0.85853749513626099
vn -0.35192263126373291 -0.37291264533996582 0.85853749513626099
vn -0.69188761711120605 0 0.72200524806976318
vn -0.68300116062164307 0.029729418456554413 0.72981202602386475
vn -0.68300116062164307 -0.029729418456554413 0.72981202602386475
vn -0.2535102367401123 0.46142220497131348 0.8501894474029541
vn -0.25351029634475708 -0.46142208576202393 0.85018950700759888
vn -0.65269678831100464 0.070234313607215881 0.75435668230056763
vn -0.65269678831100464 -0.070234298706054688 0.75435668230056763
vn -0.58607637882232666 0.13874481618404388 0.79828840494155884
vn -0.58607643842697144 -0.13874486088752747 0.79828834533691406
vn -0.4388420581817627 0.27072316408157349 0.85681188106536865
vn -0.43884211778640747 -0.27072304487228394 0.85681188106536865
vn -0.33267733454704285 0.35251989960670471 0.87467449903488159
vn -0.33267751336097717 -0.35251966118812561 0.87467455863952637
f 121//121 113//113 108//108 119//119
f 119//119 108//108 106//106 117//117
f 117//117 106//106 104//104 115//115
f 115//115 104//104 102//102 111//111
f 111//111 102//102 100//100 109//109
f 109//109 100//100 101//101 110//110
f 110//110 101//101 103//103 114//114
f 114//114 103//103 105//105 116//116
f 116//116 105//105 107//107 118//118
f 118//118 107//107 112//112 120//120
f 113//113 99//99 97//97 108//108
f 108//108 97//97 95//95 106//106
f 106//106 95//95 93//93 104//104
f 104//104 93//93 91//91 102//102
f 102//102 91//91 89//89 100//100
f 100//100 89//89 90//90 101//101
f 101//101 90//90 92//92 103//103
f 103//103 92//92 94//94 105//105
f 105//105 94//94 96//96 107//107
f 107//107 96//96 98//98 112//112
f 99//99 88//88 86//86 97//97
f 97//97 86//86 84//84 95//95
f 95//95 84//84 82//82 93//93
f 93//93 82//82 80//80 91//91
f 91//91 80//80 78//78 89//89
f 89//89 78//78 79//79 90//90
f 90//90 79//79 81//81 92//92
f 92//92 81//81 83//83 94//94
f 94//94 83//83 85//85 96//96
f 96//96 85//85 87//87 98//98
f 88//88 77//77 75//75 86//86
f 86//86 75//75 73//73 84//84
f 84//84 73//73 71//71 82//82
f 82//82 71//71 69//69 80//80
f 80//80 69//69 67//67 78//78
f 78//78 67//67 68//68 79//79
f 79//79 68//68 70//70 81//81
f 81//81 70//70 72//72 83//83
f 83//83 72//72 74//74 85//85
f 85//85 74//74 76//76 87//87
f 77//77 66//66 65//65 75//75
f 75//75 65//65 64//64 73//73
f 73//73 64//64 63//63 71//71
f 71//71 63//63 62//62 69//69
f 69//69 62//62 61//61 67//67
f 67//67 61//61 60//60 68//68
f 68//68 60//60 59//59 70//70
f 70//70 59//59 58//58 72//72
f 72//72 58//58 57//57 74//74
f 74//74 57//57 56//56 76//76
f 66//66 46//46 48//48 65//65
f 65//65 48//48 50//50 64//64
f 64//64 50//50 52//52 63//63
f 63//63 52//52 54//54 62//62
f 62//62 54//54 55//55 61//61
f 61//61 55//55 53//53 60//60
f 60//60 53//53 51//51 59//59
f 59//59 51//51 49//49 58//58
f 58//58 49//49 47//47 57//57
f 57//57 47//47 45//45 56//56
f 46//46 35//35 37//37 48//48
f 48//48 37//37 39//39 50//50
f 50//50 39//39 41//41 52//52
f 52//52 41//41 43//43 54//54
f 54//54 43//43 44//44 55//55
f 55//55 44//44 42//42 53//53
f 53//53 42//42 40//40 51//51
f 51//51 40//40 38//38 49//49
f 49//49 38//38 36//36 47//47
f 47//47 36//36 34//34 45//45
f 35//35 24//24 26//26 37//37
f 37//37 26//26 28//28 39//39
f 39//39 28//28 30//30 41//41
f 41//41 30//30 32//32 43//43
f 43//43 32//32 33//33 44//44
f 44//44 33//33 31//31 42//42
f 42//42 31//31 29//29 40//40
f 40//40 29//29 27//27 38//38
f 38//38 27//27 25//25 36//36
f 36//36 25//25 23//23 34//34
f 24//24 10//10 15//15 26//26
f 26//26 15//15 17//17 28//28
f 28//28 17//17 19//19 30//30
f 30//30 19//19 21//21 32//32
f 32//32 21//21 22//22 33//33
f 33//33 22//22 20//20 31//31
f 31//31 20//20 18//18 29//29
f 29//29 18//18 16//16 27//27
f 27//27 16//16 14//14 25//25
f 25//25 14//14 9//9 23//23
f 10//10 2//2 4//4 15//15
f 15//15 4//4 6//6 17//17
f 17//17 6//6 8//8 19//19
f 19//19 8//8 12//12 21//21
f 21//21 12//12 13//13 22//22
f 22//22 13//13 11//11 20//20
f 20//20 11//11 7//7 18//18
f 18//18 7//7 5//5 16//16
f 16//16 5//5 3//3 14//14
f 14//14 3//3 1//1 9//9
