# Rhino

mtllib rhinovault_mesh_0.mtl
usemtl Default
v 10 10 0
v 10 0 0
v 9.5943269729614258 8.9611091613769531 0.51529109477996826
v 9.5943269729614258 1.0388913154602051 0.51529109477996826
v 9.2921180725097656 7.9511575698852539 0.92720127105712891
v 9.2921180725097656 2.0488424301147461 0.92720127105712891
v 9.0825185775756836 6.9589748382568359 1.2260748147964478
v 9.0825185775756836 3.041024923324585 1.2260748147964478
v 8.9611091613769531 9.5943269729614258 0.51529109477996826
v 8.9611091613769531 0.40567272901535034 0.51529109477996826
v 8.9590749740600586 5.9771108627319336 1.4069334268569946
v 8.9590749740600586 4.0228891372680664 1.4069334268569946
v 8.9182968139648438 5 1.4674453735351562
v 8.7152061462402344 8.7152061462402344 1.1954261064529419
v 8.7152061462402344 1.2847940921783447 1.1954261064529419
v 8.5052089691162109 7.800178050994873 1.6854039430618286
v 8.5052089691162109 2.1998217105865479 1.6854039430618286
v 8.3504657745361328 6.8713021278381348 2.0233554840087891
v 8.3504657745361328 3.1286978721618652 2.0233554840087891
v 8.2566690444946289 5.9367189407348633 2.2224979400634766
v 8.2566690444946289 4.0632810592651367 2.2224979400634766
v 8.2253141403198242 5 2.2883458137512207
v 7.9511575698852539 9.2921180725097656 0.92720127105712891
v 7.9511575698852539 0.70788222551345825 0.92720127105712891
v 7.800178050994873 8.5052089691162109 1.6854039430618286
v 7.800178050994873 1.49479079246521 1.6854039430618286
v 7.6630473136901855 7.6630473136901855 2.2206039428710938
v 7.6630473136901855 2.3369524478912354 2.2206039428710938
v 7.5574660301208496 6.7893362045288086 2.5823690891265869
v 7.5574660301208496 3.2106640338897705 2.5823690891265869
v 7.4918203353881836 5.8984637260437012 2.7927746772766113
v 7.4918203353881836 4.1015362739562988 2.7927746772766113
v 7.4696235656738281 5 2.8619122505187988
v 6.9589748382568359 9.0825185775756836 1.2260748147964478
v 6.9589748382568359 0.91748106479644775 1.2260748147964478
v 6.8713021278381348 8.3504657745361328 2.0233554840087891
v 6.8713021278381348 1.6495341062545776 2.0233554840087891
v 6.7893362045288086 7.5574660301208496 2.5823690891265869
v 6.7893362045288086 2.4425337314605713 2.5823690891265869
v 6.7245311737060547 6.7245311737060547 2.9565067291259766
v 6.7245311737060547 3.2754688262939453 2.9565067291259766
v 6.6835231781005859 5.8677992820739746 3.1725234985351562
v 6.6835231781005859 4.1322007179260254 3.1725234985351562
v 6.6695389747619629 5 3.2432448863983154
v 5.9771108627319336 8.9590749740600586 1.4069334268569946
v 5.9771108627319336 1.0409250259399414 1.4069334268569946
v 5.9367189407348633 8.2566690444946289 2.2224979400634766
v 5.9367189407348633 1.7433310747146606 2.2224979400634766
v 5.8984637260437012 7.4918203353881836 2.7927746772766113
v 5.8984637260437012 2.5081794261932373 2.7927746772766113
v 5.8677992820739746 6.6835231781005859 3.1725234985351562
v 5.8677992820739746 3.3164768218994141 3.1725234985351562
v 5.8482022285461426 5.8482022285461426 3.3908898830413818
v 5.8482022285461426 4.1517977714538574 3.3908898830413818
v 5.8414855003356934 5 3.4622294902801514
v 5 8.9182968139648438 1.4674453735351562
v 5 8.2253141403198242 2.2883458137512207
v 5 7.4696235656738281 2.8619122505187988
v 5 6.6695389747619629 3.2432448863983154
v 5 5.8414855003356934 3.4622294902801514
v 5 5 3.5337204933166504
v 5 4.1585144996643066 3.4622294902801514
v 5 3.3304610252380371 3.2432448863983154
v 5 2.5303764343261719 2.8619122505187988
v 5 1.7746853828430176 2.2883458137512207
v 5 1.0817033052444458 1.4674453735351562
v 4.1585144996643066 5 3.4622294902801514
v 4.1517977714538574 5.8482022285461426 3.3908898830413818
v 4.1517977714538574 4.1517977714538574 3.3908898830413818
v 4.1322007179260254 6.6835231781005859 3.1725234985351562
v 4.1322007179260254 3.3164768218994141 3.1725234985351562
v 4.1015362739562988 7.4918203353881836 2.7927746772766113
v 4.1015362739562988 2.5081794261932373 2.7927746772766113
v 4.0632810592651367 8.2566690444946289 2.2224979400634766
v 4.0632810592651367 1.7433310747146606 2.2224979400634766
v 4.0228891372680664 8.9590749740600586 1.4069334268569946
v 4.0228891372680664 1.0409250259399414 1.4069334268569946
v 3.3304610252380371 5 3.2432448863983154
v 3.3164768218994141 5.8677992820739746 3.1725234985351562
v 3.3164768218994141 4.1322007179260254 3.1725234985351562
v 3.2754688262939453 6.7245311737060547 2.9565067291259766
v 3.2754688262939453 3.2754688262939453 2.9565067291259766
v 3.2106640338897705 7.5574660301208496 2.5823690891265869
v 3.2106640338897705 2.4425337314605713 2.5823690891265869
v 3.1286978721618652 8.3504657745361328 2.0233554840087891
v 3.1286978721618652 1.6495341062545776 2.0233554840087891
v 3.041024923324585 9.0825185775756836 1.2260748147964478
v 3.041024923324585 0.91748106479644775 1.2260748147964478
v 2.5303764343261719 5 2.8619122505187988
v 2.5081794261932373 5.8984637260437012 2.7927746772766113
v 2.5081794261932373 4.1015362739562988 2.7927746772766113
v 2.4425337314605713 6.7893362045288086 2.5823690891265869
v 2.4425337314605713 3.2106640338897705 2.5823690891265869
v 2.3369524478912354 7.6630473136901855 2.2206039428710938
v 2.3369524478912354 2.3369524478912354 2.2206039428710938
v 2.1998217105865479 8.5052089691162109 1.6854039430618286
v 2.1998217105865479 1.49479079246521 1.6854039430618286
v 2.0488424301147461 9.2921180725097656 0.92720127105712891
v 2.0488424301147461 0.70788222551345825 0.92720127105712891
v 1.7746853828430176 5 2.2883458137512207
v 1.7433310747146606 5.9367189407348633 2.2224979400634766
v 1.7433310747146606 4.0632810592651367 2.2224979400634766
v 1.6495341062545776 6.8713021278381348 2.0233554840087891
v 1.6495341062545776 3.1286978721618652 2.0233554840087891
v 1.49479079246521 7.800178050994873 1.6854039430618286
v 1.49479079246521 2.1998217105865479 1.6854039430618286
v 1.2847940921783447 8.7152061462402344 1.1954261064529419
v 1.2847940921783447 1.2847940921783447 1.1954261064529419
v 1.0817033052444458 5 1.4674453735351562
v 1.0409250259399414 5.9771108627319336 1.4069334268569946
v 1.0409250259399414 4.0228891372680664 1.4069334268569946
v 1.0388913154602051 9.5943269729614258 0.51529109477996826
v 1.0388913154602051 0.40567272901535034 0.51529109477996826
v 0.91748106479644775 6.9589748382568359 1.2260748147964478
v 0.91748106479644775 3.041024923324585 1.2260748147964478
v 0.70788222551345825 7.9511575698852539 0.92720127105712891
v 0.70788222551345825 2.0488424301147461 0.92720127105712891
v 0.40567272901535034 8.9611091613769531 0.51529109477996826
v 0.40567272901535034 1.0388913154602051 0.51529109477996826
v 0 10 0
v 0 0 0
vn 0.38864871859550476 0.38864871859550476 0.83540672063827515
vn 0.38864892721176147 -0.38864845037460327 0.83540672063827515
vn 0.50722378492355347 0.29529538750648499 0.80964481830596924
vn 0.50722384452819824 -0.29529529809951782 0.80964475870132446
vn 0.66082102060317993 0.14763398468494415 0.73588031530380249
vn 0.66082102060317993 -0.14763401448726654 0.73588031530380249
vn 0.72487813234329224 0.073611065745353699 0.6849328875541687
vn 0.72487813234329224 -0.073611065745353699 0.6849328875541687
vn 0.29529538750648499 0.50722378492355347 0.80964481830596924
vn 0.29529547691345215 -0.50722366571426392 0.80964481830596924
vn 0.75274282693862915 0.030920889228582382 0.65758812427520752
vn 0.75274282693862915 -0.030920885503292084 0.65758812427520752
vn 0.76075750589370728 0 0.6490362286567688
vn 0.40900042653083801 0.40900039672851562 0.81574344635009766
vn 0.4090004563331604 -0.40900036692619324 0.81574344635009766
vn 0.56668245792388916 0.23815926909446716 0.788765549659729
vn 0.56668245792388916 -0.23815928399562836 0.788765549659729
vn 0.64097303152084351 0.13170985877513885 0.75617855787277222
vn 0.64097303152084351 -0.13170985877513885 0.75617855787277222
vn 0.67489451169967651 0.05891915038228035 0.73555827140808105
vn 0.67489451169967651 -0.05891915038228035 0.73555821180343628
vn 0.68480759859085083 0 0.72872394323348999
vn 0.14763398468494415 0.66082102060317993 0.73588031530380249
vn 0.14763404428958893 -0.66082102060317993 0.73588031530380249
vn 0.23815926909446716 0.56668245792388916 0.788765549659729
vn 0.23815931379795074 -0.56668245792388916 0.788765549659729
vn 0.37996494770050049 0.37996494770050049 0.84335833787918091
vn 0.37996494770050049 -0.3799649178981781 0.84335833787918091
vn 0.46235617995262146 0.22980111837387085 0.85639840364456177
vn 0.46235617995262146 -0.22980107367038727 0.85639840364456177
vn 0.50377285480499268 0.10800366103649139 0.85705780982971191
vn 0.50377285480499268 -0.10800366848707199 0.85705780982971191
vn 0.51633161306381226 0 0.85638874769210815
vn 0.073611065745353699 0.72487813234329224 0.6849328875541687
vn 0.073611043393611908 -0.72487813234329224 0.6849328875541687
vn 0.13170985877513885 0.64097303152084351 0.75617855787277222
vn 0.13170981407165527 -0.64097309112548828 0.75617855787277222
vn 0.22980111837387085 0.46235617995262146 0.85639840364456177
vn 0.22980110347270966 -0.46235612034797668 0.85639840364456177
vn 0.29486536979675293 0.29486536979675293 0.9089052677154541
vn 0.29486539959907532 -0.29486533999443054 0.9089052677154541
vn 0.3304019570350647 0.14286309480667114 0.93296551704406738
vn 0.3304019570350647 -0.14286310970783234 0.93296551704406738
vn 0.3415902853012085 0 0.93984895944595337
vn 0.030920889228582382 0.75274282693862915 0.65758812427520752
vn 0.030920872464776039 -0.75274282693862915 0.65758812427520752
vn 0.05891915038228035 0.67489451169967651 0.73555827140808105
vn 0.058919146656990051 -0.67489457130432129 0.73555821180343628
vn 0.1080036535859108 0.50377285480499268 0.85705780982971191
vn 0.10800366848707199 -0.50377285480499268 0.85705780982971191
vn 0.14286310970783234 0.3304019570350647 0.93296551704406738
vn 0.14286309480667114 -0.33040192723274231 0.93296551704406738
vn 0.16286627948284149 0.16286629438400269 0.97311311960220337
vn 0.16286627948284149 -0.16286629438400269 0.97311311960220337
vn 0.16931948065757751 0 0.98556119203567505
vn 0 0.76075750589370728 0.6490362286567688
vn 0 0.68480759859085083 0.72872394323348999
vn 0 0.51633161306381226 0.85638874769210815
vn 1.8752295272150832E-09 0.3415902853012085 0.93984895944595337
vn -1.8756265429686891E-09 0.16931948065757751 0.98556119203567505
vn 0 0 1
vn -1.8756265429686891E-09 -0.16931949555873871 0.98556119203567505
vn 0 -0.3415902853012085 0.93984895944595337
vn 0 -0.51633161306381226 0.85638874769210815
vn 0 -0.68480765819549561 0.72872388362884521
vn 0 -0.76075756549835205 0.64903610944747925
vn -0.16931949555873871 0 0.98556119203567505
vn -0.1628662645816803 0.16286627948284149 0.97311311960220337
vn -0.16286627948284149 -0.16286627948284149 0.97311311960220337
vn -0.14286310970783234 0.3304019570350647 0.93296551704406738
vn -0.14286309480667114 -0.33040192723274231 0.93296551704406738
vn -0.10800366848707199 0.50377285480499268 0.85705780982971191
vn -0.10800366848707199 -0.50377285480499268 0.85705780982971191
vn -0.058919154107570648 0.67489451169967651 0.73555827140808105
vn -0.058919146656990051 -0.67489457130432129 0.73555821180343628
vn -0.030920885503292084 0.75274282693862915 0.65758812427520752
vn -0.03092087060213089 -0.75274282693862915 0.65758812427520752
vn -0.3415902853012085 0 0.93984895944595337
vn -0.33040192723274231 0.14286309480667114 0.93296551704406738
vn -0.33040192723274231 -0.14286309480667114 0.93296551704406738
vn -0.29486531019210815 0.29486539959907532 0.9089052677154541
vn -0.29486536979675293 -0.29486536979675293 0.9089052677154541
vn -0.22980107367038727 0.46235617995262146 0.85639840364456177
vn -0.22980105876922607 -0.46235617995262146 0.85639840364456177
vn -0.13170984387397766 0.64097309112548828 0.75617855787277222
vn -0.13170979917049408 -0.64097309112548828 0.75617855787277222
vn -0.073611065745353699 0.72487813234329224 0.6849328875541687
vn -0.073611035943031311 -0.72487813234329224 0.68493294715881348
vn -0.51633161306381226 0 0.85638874769210815
vn -0.50377285480499268 0.10800366103649139 0.85705780982971191
vn -0.50377285480499268 -0.10800366848707199 0.85705780982971191
vn -0.46235617995262146 0.22980110347270966 0.85639840364456177
vn -0.46235617995262146 -0.22980105876922607 0.85639840364456177
vn -0.37996494770050049 0.37996497750282288 0.84335833787918091
vn -0.37996497750282288 -0.37996497750282288 0.84335833787918091
vn -0.23815928399562836 0.56668245792388916 0.788765549659729
vn -0.23815932869911194 -0.56668251752853394 0.788765549659729
vn -0.14763401448726654 0.66082102060317993 0.73588031530380249
vn -0.14763407409191132 -0.66082102060317993 0.73588025569915771
vn -0.68480765819549561 0 0.72872388362884521
vn -0.67489457130432129 0.058919146656990051 0.73555821180343628
vn -0.67489457130432129 -0.058919146656990051 0.73555821180343628
vn -0.64097309112548828 0.13170981407165527 0.75617855787277222
vn -0.64097309112548828 -0.13170979917049408 0.75617855787277222
vn -0.56668251752853394 0.23815934360027313 0.78876549005508423
vn -0.56668251752853394 -0.23815935850143433 0.78876549005508423
vn -0.40900036692619324 0.40900048613548279 0.81574338674545288
vn -0.40900042653083801 -0.40900042653083801 0.81574338674545288
vn -0.76075756549835205 0 0.64903610944747925
vn -0.75274282693862915 0.030920872464776039 0.65758812427520752
vn -0.75274282693862915 -0.03092087060213089 0.65758812427520752
vn -0.29529529809951782 0.50722384452819824 0.80964475870132446
vn -0.2952953577041626 -0.50722372531890869 0.80964481830596924
vn -0.72487813234329224 0.073611043393611908 0.6849328875541687
vn -0.72487813234329224 -0.073611035943031311 0.68493294715881348
vn -0.66082102060317993 0.14763404428958893 0.73588031530380249
vn -0.66082102060317993 -0.14763407409191132 0.73588025569915771
vn -0.50722366571426392 0.29529547691345215 0.80964481830596924
vn -0.50722372531890869 -0.2952953577041626 0.80964481830596924
vn -0.38864845037460327 0.38864892721176147 0.83540672063827515
vn -0.38864865899085999 -0.38864865899085999 0.83540672063827515
f 121//121 113//113 108//108 119//119
f 119//119 108//108 106//106 117//117
f 117//117 106//106 104//104 115//115
f 115//115 104//104 102//102 111//111
f 111//111 102//102 100//100 109//109
f 109//109 100//100 101//101 110//110
f 110//110 101//101 103//103 114//114
f 114//114 103//103 105//105 116//116
f 116//116 105//105 107//107 118//118
f 118//118 107//107 112//112 120//120
f 113//113 99//99 97//97 108//108
f 108//108 97//97 95//95 106//106
f 106//106 95//95 93//93 104//104
f 104//104 93//93 91//91 102//102
f 102//102 91//91 89//89 100//100
f 100//100 89//89 90//90 101//101
f 101//101 90//90 92//92 103//103
f 103//103 92//92 94//94 105//105
f 105//105 94//94 96//96 107//107
f 107//107 96//96 98//98 112//112
f 99//99 88//88 86//86 97//97
f 97//97 86//86 84//84 95//95
f 95//95 84//84 82//82 93//93
f 93//93 82//82 80//80 91//91
f 91//91 80//80 78//78 89//89
f 89//89 78//78 79//79 90//90
f 90//90 79//79 81//81 92//92
f 92//92 81//81 83//83 94//94
f 94//94 83//83 85//85 96//96
f 96//96 85//85 87//87 98//98
f 88//88 77//77 75//75 86//86
f 86//86 75//75 73//73 84//84
f 84//84 73//73 71//71 82//82
f 82//82 71//71 69//69 80//80
f 80//80 69//69 67//67 78//78
f 78//78 67//67 68//68 79//79
f 79//79 68//68 70//70 81//81
f 81//81 70//70 72//72 83//83
f 83//83 72//72 74//74 85//85
f 85//85 74//74 76//76 87//87
f 77//77 66//66 65//65 75//75
f 75//75 65//65 64//64 73//73
f 73//73 64//64 63//63 71//71
f 71//71 63//63 62//62 69//69
f 69//69 62//62 61//61 67//67
f 67//67 61//61 60//60 68//68
f 68//68 60//60 59//59 70//70
f 70//70 59//59 58//58 72//72
f 72//72 58//58 57//57 74//74
f 74//74 57//57 56//56 76//76
f 66//66 46//46 48//48 65//65
f 65//65 48//48 50//50 64//64
f 64//64 50//50 52//52 63//63
f 63//63 52//52 54//54 62//62
f 62//62 54//54 55//55 61//61
f 61//61 55//55 53//53 60//60
f 60//60 53//53 51//51 59//59
f 59//59 51//51 49//49 58//58
f 58//58 49//49 47//47 57//57
f 57//57 47//47 45//45 56//56
f 46//46 35//35 37//37 48//48
f 48//48 37//37 39//39 50//50
f 50//50 39//39 41//41 52//52
f 52//52 41//41 43//43 54//54
f 54//54 43//43 44//44 55//55
f 55//55 44//44 42//42 53//53
f 53//53 42//42 40//40 51//51
f 51//51 40//40 38//38 49//49
f 49//49 38//38 36//36 47//47
f 47//47 36//36 34//34 45//45
f 35//35 24//24 26//26 37//37
f 37//37 26//26 28//28 39//39
f 39//39 28//28 30//30 41//41
f 41//41 30//30 32//32 43//43
f 43//43 32//32 33//33 44//44
f 44//44 33//33 31//31 42//42
f 42//42 31//31 29//29 40//40
f 40//40 29//29 27//27 38//38
f 38//38 27//27 25//25 36//36
f 36//36 25//25 23//23 34//34
f 24//24 10//10 15//15 26//26
f 26//26 15//15 17//17 28//28
f 28//28 17//17 19//19 30//30
f 30//30 19//19 21//21 32//32
f 32//32 21//21 22//22 33//33
f 33//33 22//22 20//20 31//31
f 31//31 20//20 18//18 29//29
f 29//29 18//18 16//16 27//27
f 27//27 16//16 14//14 25//25
f 25//25 14//14 9//9 23//23
f 10//10 2//2 4//4 15//15
f 15//15 4//4 6//6 17//17
f 17//17 6//6 8//8 19//19
f 19//19 8//8 12//12 21//21
f 21//21 12//12 13//13 22//22
f 22//22 13//13 11//11 20//20
f 20//20 11//11 7//7 18//18
f 18//18 7//7 5//5 16//16
f 16//16 5//5 3//3 14//14
f 14//14 3//3 1//1 9//9
