ply
format ascii 1.0
comment File exported by Rhinoceros Version 8
element vertex 121
property float x
property float y
property float z
property float nx
property float ny
property float nz
element face 100
property list uchar uint vertex_indices
end_header
11.11578535064865 10.77154875330914 0.28384710665345825 0.33267757 0.3525197 0.8746745
11.11578535064865 -0.7715487533091414 0.28384710665345825 0.33267778 -0.35251945 0.8746745
10.61958351946549 9.572346928413314 0.7991382014334265 0.43884215 0.27072307 0.8568119
10.61958351946549 0.42765362200446666 0.7991382014334265 0.4388422 -0.27072296 0.8568119
10.24993456622191 8.406549958658015 1.2110483777105872 0.5860764 0.13874477 0.7982884
10.24993456622191 1.5934500413419856 1.2110483777105872 0.5860764 -0.13874479 0.7982884
9.993561462097666 7.261263757101044 1.509921921449906 0.6526968 0.070234336 0.7543567
9.993561462097666 2.7387359676900656 1.509921921449906 0.6526968 -0.070234336 0.7543567
9.845058676293867 10.303276422618016 0.7991382014334265 0.2535103 0.46142215 0.85018945
9.845058676293867 -0.30327676662912895 0.7991382014334265 0.2535104 -0.46142203 0.8501895
9.842570545695239 6.127888596329062 1.6907805335104529 0.68300116 0.029729435 0.729812
9.842570545695239 3.872111403670938 1.6907805335104529 0.68300116 -0.029729431 0.729812
9.792692450867895 5 1.7512924801886145 0.6918875 0 0.7220053
9.544280664763171 9.288498680323858 1.4792732131064001 0.35192266 0.37291262 0.8585375
9.544280664763171 0.7115015948850336 1.4792732131064001 0.3519227 -0.3729126 0.8585375
9.287421132856636 8.232272827852615 1.9692510497152869 0.49405318 0.22001955 0.84113187
9.287421132856636 1.7677268969384934 1.9692510497152869 0.49405318 -0.22001955 0.84113187
9.098145900351552 7.160062292597786 2.3072025906622473 0.56526375 0.123080574 0.81567645
9.098145900351552 2.839937707402214 2.3072025906622473 0.56526375 -0.123080574 0.81567645
8.983417766846237 6.081263806919872 2.506345046716935 0.59914416 0.05542578 0.79872036
8.983417766846237 3.918736193080128 2.506345046716935 0.5991442 -0.055425778 0.79872036
8.945065794121586 5 2.572192920404679 0.6092403 0 0.7929857
8.609729246672021 9.954433742089876 1.2110483777105872 0.12838711 0.60894597 0.7827526
8.609729246672021 0.045566601921238736 1.2110483777105872 0.12838715 -0.608946 0.7827525
8.425057580696468 9.046096891158136 1.9692510497152869 0.20511878 0.5171751 0.83093697
8.425057580696468 0.9539028336329718 1.9692510497152869 0.2051188 -0.5171751 0.83093697
8.257325149830136 8.073981480666369 2.504451049524552 0.32455516 0.34391284 0.8811288
8.257325149830136 1.9260182441247395 2.504451049524552 0.3245552 -0.3439128 0.8811288
8.12818265635893 7.065448228099831 2.866216195780045 0.3949677 0.20801608 0.89483505
8.12818265635893 2.9345520471090594 2.866216195780045 0.39496773 -0.20801605 0.89483505
8.047887660723092 6.037105439588202 3.0766217839300696 0.43105525 0.09792566 0.8969961
8.047887660723092 3.962894560411798 3.0766217839300696 0.43105525 -0.09792567 0.8969961
8.020737524912937 5 3.145759357172257 0.4421253 0 0.8969533
7.396133923620093 9.71249100135367 1.509921921449906 0.064628534 0.6743821 0.73554873
7.396133923620093 0.2875085858329949 1.509921921449906 0.06462851 -0.6743821 0.73554873
7.288896428014022 8.867475312805794 2.3072025906622473 0.11402913 0.5880269 0.80076325
7.288896428014022 1.1325245495897618 2.3072025906622473 0.114029095 -0.5880269 0.80076325
7.188639229408508 7.9521079755548945 2.866216195780045 0.19490638 0.41553774 0.888448
7.188639229408508 2.0478917492362156 2.866216195780045 0.19490638 -0.4155377 0.88844806
7.109372497777683 6.990643149129186 3.240353835779435 0.24739987 0.2621557 0.9327742
7.109372497777683 3.0093568508708137 3.240353835779435 0.2473999 -0.26215568 0.9327742
7.059213278021005 6.001709172915323 3.4563706051886145 0.275878 0.12640214 0.9528451
7.059213278021005 3.998290827084677 3.4563706051886145 0.275878 -0.12640214 0.9528451
7.042108400837236 5 3.5270919930517737 0.2848342 0 0.9585768
6.1951600600511245 9.56999884615875 1.6907805335104529 0.027286407 0.7038836 0.70979106
6.1951600600511245 0.4300011538412496 1.6907805335104529 0.02728639 -0.7038836 0.70979106
6.145754395084279 8.759204832738689 2.506345046716935 0.051197786 0.62142754 0.78179705
6.145754395084279 1.2407953048657556 2.506345046716935 0.051197786 -0.6214276 0.781797
6.098962258765454 7.876332510036007 3.0766217839300696 0.091423675 0.4518714 0.887386
6.098962258765454 2.123667214755102 3.0766217839300696 0.09142369 -0.4518714 0.887386
6.061454827322286 6.943307219946696 3.4563706051886145 0.1188366 0.29122764 0.9492441
6.061454827322286 3.056692780053304 3.4563706051886145 0.118836574 -0.29122758 0.9492441
6.037484552746007 5.979088102943905 3.67473698969484 0.13419059 0.14219423 0.9807006
6.037484552746007 4.020911897056095 3.67473698969484 0.13419059 -0.14219423 0.9807006
6.029268939147257 5 3.7460765969336096 0.13909097 0 0.9902796
5 9.522928218346795 1.7512924801886145 0 0.7125035 0.70166856
5 8.723011561118646 2.572192920404679 0 0.63134444 0.7755025
5 7.850710562321532 3.145759357172257 0 0.4629696 0.8863742
5 6.927165117677686 3.5270919930517737 1.5559212E-09 0.30032986 0.9538354
5 5.971334918078038 3.7460765969336096 -1.5389443E-09 0.14721204 0.9891049
5 5 3.8175675999701086 0 0 1
5 4.028665081921962 3.7460765969336096 -1.5389443E-09 -0.14721206 0.9891049
5 3.072834882322314 3.5270919930517737 0 -0.30032986 0.9538354
5 2.149289437678468 3.145759357172257 0 -0.4629696 0.8863742
5 1.2769878884635735 2.572192920404679 0 -0.63134456 0.77550244
5 0.47707191925765025 1.7512924801886145 0 -0.71250355 0.7016685
3.970731060852743 5 3.7460765969336096 -0.13909099 0 0.9902796
3.9625154472539927 5.979088102943905 3.67473698969484 -0.13419057 0.14219421 0.9807006
3.9625154472539927 4.020911897056095 3.67473698969484 -0.13419059 -0.14219421 0.9807006
3.9385451726777143 6.943307219946696 3.4563706051886145 -0.1188366 0.29122764 0.9492441
3.9385451726777143 3.056692780053304 3.4563706051886145 -0.118836574 -0.29122758 0.9492441
3.9010377412345463 7.876332510036007 3.0766217839300696 -0.09142369 0.4518714 0.887386
3.9010377412345463 2.123667214755102 3.0766217839300696 -0.09142369 -0.4518714 0.887386
3.8542456049157208 8.759204832738689 2.506345046716935 -0.05119779 0.62142754 0.78179705
3.8542456049157208 1.2407953048657556 2.506345046716935 -0.051197786 -0.6214276 0.781797
3.8048399399488755 9.56999884615875 1.6907805335104529 -0.027286403 0.7038836 0.70979106
3.8048399399488755 0.4300011538412496 1.6907805335104529 -0.02728639 -0.7038836 0.70979106
2.957891599162764 5 3.5270919930517737 -0.2848342 0 0.9585768
2.940786721978996 6.001709172915323 3.4563706051886145 -0.27587798 0.12640214 0.9528451
2.940786721978996 3.998290827084677 3.4563706051886145 -0.27587798 -0.12640214 0.9528451
2.8906275022223173 6.990643149129186 3.240353835779435 -0.24739982 0.2621557 0.9327742
2.8906275022223173 3.0093568508708137 3.240353835779435 -0.24739987 -0.2621557 0.9327742
2.811361062214862 7.9521079755548945 2.866216195780045 -0.19490635 0.41553777 0.888448
2.811361062214862 2.0478917492362156 2.866216195780045 -0.19490634 -0.41553777 0.888448
2.7111035719859773 8.867475312805794 2.3072025906622473 -0.11402912 0.5880269 0.80076325
2.7111035719859773 1.1325245495897618 2.3072025906622473 -0.11402908 -0.5880269 0.80076325
2.603865784756536 9.71249100135367 1.509921921449906 -0.064628534 0.6743821 0.73554873
2.603865784756536 0.2875085858329949 1.509921921449906 -0.064628504 -0.6743821 0.73554873
1.9792624750870633 5 3.145759357172257 -0.4421253 0 0.8969533
1.9521120476535372 6.037105439588202 3.0766217839300696 -0.43105525 0.09792566 0.8969961
1.9521120476535372 3.962894560411798 3.0766217839300696 -0.43105525 -0.09792567 0.8969961
1.871817052017699 7.065448228099831 2.866216195780045 -0.3949677 0.20801608 0.89483505
1.871817052017699 2.9345520471090594 2.866216195780045 -0.3949677 -0.20801604 0.8948351
1.7426745585464936 8.073981480666369 2.504451049524552 -0.32455516 0.34391287 0.8811287
1.7426745585464936 1.9260182441247395 2.504451049524552 -0.32455522 -0.3439129 0.8811287
1.5749421276801625 9.046096891158136 1.9692510497152869 -0.20511879 0.5171751 0.83093697
1.5749421276801625 0.9539028336329718 1.9692510497152869 -0.2051188 -0.5171751 0.83093697
1.3902707533279788 9.954433742089876 1.2110483777105872 -0.12838714 0.608946 0.7827525
1.3902707533279788 0.045566601921238736 1.2110483777105872 -0.1283872 -0.60894597 0.7827525
1.0549336226316735 5 2.572192920404679 -0.60924035 0 0.7929856
1.0165823789654476 6.081263806919872 2.506345046716935 -0.5991443 0.05542577 0.7987203
1.0165823789654476 3.918736193080128 2.506345046716935 -0.5991443 -0.05542577 0.7987203
0.9018539538367616 7.160062292597786 2.3072025906622473 -0.56526375 0.12308053 0.81567645
0.9018539538367616 2.839937707402214 2.3072025906622473 -0.56526375 -0.123080514 0.81567645
0.7125785755199932 8.232272827852615 1.9692510497152869 -0.49405324 0.22001964 0.8411318
0.7125785755199932 1.7677268969384934 1.9692510497152869 -0.49405324 -0.22001964 0.8411318
0.4557196268602002 9.288498680323858 1.4792732131064001 -0.3519226 0.37291268 0.8585375
0.4557196268602002 0.7115015948850336 1.4792732131064001 -0.35192263 -0.37291265 0.8585375
0.2073076949437911 5 1.7512924801886145 -0.6918876 0 0.72200525
0.15742945430476163 6.127888596329062 1.6907805335104529 -0.68300116 0.029729418 0.729812
0.15742945430476163 3.872111403670938 1.6907805335104529 -0.68300116 -0.029729418 0.729812
0.15494190695287524 10.303276422618016 0.7991382014334265 -0.25351024 0.4614222 0.85018945
0.15494190695287524 -0.30327676662912895 0.7991382014334265 -0.2535103 -0.4614221 0.8501895
0.006438100467277774 7.261263757101044 1.509921921449906 -0.6526968 0.07023431 0.7543567
0.006438100467277774 2.7387359676900656 1.509921921449906 -0.6526968 -0.0702343 0.7543567
-0.24993420169269587 8.406549958658015 1.2110483777105872 -0.5860764 0.13874482 0.7982884
-0.24993420169269587 1.5934500413419856 1.2110483777105872 -0.58607644 -0.13874486 0.79828835
-0.6195838839947025 9.572346928413314 0.7991382014334265 -0.43884206 0.27072316 0.8568119
-0.6195838839947025 0.42765362200446666 0.7991382014334265 -0.43884212 -0.27072304 0.8568119
-1.1157853506486504 10.77154875330914 0.28384710665345825 -0.33267733 0.3525199 0.8746745
-1.1157853506486504 -0.7715487533091414 0.28384710665345825 -0.3326775 -0.35251966 0.87467456
4 120 112 107 118
4 118 107 105 116
4 116 105 103 114
4 114 103 101 110
4 110 101 99 108
4 108 99 100 109
4 109 100 102 113
4 113 102 104 115
4 115 104 106 117
4 117 106 111 119
4 112 98 96 107
4 107 96 94 105
4 105 94 92 103
4 103 92 90 101
4 101 90 88 99
4 99 88 89 100
4 100 89 91 102
4 102 91 93 104
4 104 93 95 106
4 106 95 97 111
4 98 87 85 96
4 96 85 83 94
4 94 83 81 92
4 92 81 79 90
4 90 79 77 88
4 88 77 78 89
4 89 78 80 91
4 91 80 82 93
4 93 82 84 95
4 95 84 86 97
4 87 76 74 85
4 85 74 72 83
4 83 72 70 81
4 81 70 68 79
4 79 68 66 77
4 77 66 67 78
4 78 67 69 80
4 80 69 71 82
4 82 71 73 84
4 84 73 75 86
4 76 65 64 74
4 74 64 63 72
4 72 63 62 70
4 70 62 61 68
4 68 61 60 66
4 66 60 59 67
4 67 59 58 69
4 69 58 57 71
4 71 57 56 73
4 73 56 55 75
4 65 45 47 64
4 64 47 49 63
4 63 49 51 62
4 62 51 53 61
4 61 53 54 60
4 60 54 52 59
4 59 52 50 58
4 58 50 48 57
4 57 48 46 56
4 56 46 44 55
4 45 34 36 47
4 47 36 38 49
4 49 38 40 51
4 51 40 42 53
4 53 42 43 54
4 54 43 41 52
4 52 41 39 50
4 50 39 37 48
4 48 37 35 46
4 46 35 33 44
4 34 23 25 36
4 36 25 27 38
4 38 27 29 40
4 40 29 31 42
4 42 31 32 43
4 43 32 30 41
4 41 30 28 39
4 39 28 26 37
4 37 26 24 35
4 35 24 22 33
4 23 9 14 25
4 25 14 16 27
4 27 16 18 29
4 29 18 20 31
4 31 20 21 32
4 32 21 19 30
4 30 19 17 28
4 28 17 15 26
4 26 15 13 24
4 24 13 8 22
4 9 1 3 14
4 14 3 5 16
4 16 5 7 18
4 18 7 11 20
4 20 11 12 21
4 21 12 10 19
4 19 10 6 17
4 17 6 4 15
4 15 4 2 13
4 13 2 0 8